<?xml version="1.0" standalone="no"?>
<!DOCTYPE svg PUBLIC "-//W3C//DTD SVG 20010904//EN"
 "http://www.w3.org/TR/2001/REC-SVG-20010904/DTD/svg10.dtd">
<svg version="1.0" xmlns="http://www.w3.org/2000/svg"
 width="512.000000pt" height="512.000000pt" viewBox="0 0 512.000000 512.000000"
 preserveAspectRatio="xMidYMid meet">
<metadata>
Created by potrace 1.11, written by Peter Selinger 2001-2013
</metadata>
<g transform="translate(0.000000,512.000000) scale(0.100000,-0.100000)"
fill="#000000" stroke="none">
<path d="M2970 4939 c0 -11 5 -17 10 -14 6 3 10 13 10 21 0 8 -4 14 -10 14 -5
0 -10 -9 -10 -21z"/>
<path d="M2885 4910 c-3 -5 -4 -14 -1 -18 2 -4 -10 -6 -27 -4 -23 3 -38 -2
-51 -17 -11 -12 -25 -21 -32 -21 -7 0 -30 -11 -50 -25 -20 -13 -52 -27 -73
-31 -20 -4 -40 -9 -46 -12 -5 -3 -16 -7 -25 -8 -8 -1 -37 -7 -65 -13 -27 -6
-66 -14 -85 -17 -19 -3 -44 -9 -55 -14 -11 -5 -51 -14 -90 -20 -84 -13 -132
-30 -114 -40 16 -10 2 -30 -21 -30 -10 0 -22 -4 -25 -10 -3 -5 -17 -10 -29
-10 -35 0 -97 -29 -117 -53 -34 -44 -68 -77 -79 -77 -6 0 -8 -4 -5 -10 4 -6
-5 -10 -20 -10 -37 0 -93 -28 -107 -54 -6 -11 -32 -41 -57 -66 -53 -51 -111
-128 -111 -147 0 -7 -14 -34 -30 -60 -17 -26 -30 -53 -30 -60 0 -7 -4 -21 -9
-31 -109 -208 -141 -301 -141 -408 0 -45 -4 -94 -10 -110 -11 -35 -19 -204 -9
-204 4 0 4 -39 1 -86 -7 -116 14 -251 41 -266 19 -10 18 -11 -14 -26 -19 -8
-38 -16 -44 -16 -24 -2 -56 -95 -61 -177 -4 -79 14 -196 36 -224 4 -5 11 -21
15 -35 4 -14 24 -61 45 -105 32 -67 54 -96 124 -163 78 -75 89 -82 126 -82 36
0 42 -4 57 -35 9 -19 20 -35 24 -35 20 0 32 -123 36 -357 3 -239 2 -253 -15
-253 -10 0 -22 -4 -28 -8 -5 -5 -42 -21 -82 -36 -41 -16 -76 -36 -80 -45 -3
-9 -34 -53 -68 -98 -34 -45 -85 -128 -114 -185 -69 -138 -88 -161 -167 -201
-152 -76 -261 -135 -313 -169 -115 -73 -187 -107 -258 -122 -89 -18 -168 -53
-225 -99 -35 -29 -245 -137 -264 -137 -4 0 -37 -14 -75 -31 l-68 -32 0 -153 0
-154 2436 0 2435 0 -26 43 c-15 23 -34 55 -43 72 -20 35 -96 109 -132 127 -14
7 -43 25 -65 39 -36 24 -151 77 -280 131 -153 64 -380 185 -595 318 -86 53
-120 73 -220 128 -68 37 -87 62 -106 137 -27 102 -74 173 -74 113 0 -61 -22
-267 -31 -298 -50 -167 -133 -338 -199 -410 -91 -99 -102 -109 -147 -131 -23
-11 -43 -25 -43 -30 0 -14 -87 -99 -102 -99 -7 0 -29 14 -48 30 -60 51 -114
72 -170 64 -43 -6 -54 -3 -82 18 -18 13 -50 34 -72 46 -21 13 -64 45 -95 72
-31 27 -131 112 -223 189 -165 140 -229 209 -234 255 -1 13 -5 40 -8 60 -4 27
-2 38 9 42 8 4 15 15 15 26 0 18 5 20 33 15 17 -3 26 -3 20 0 -7 2 -13 22 -13
43 l0 38 43 -4 c23 -2 53 -6 66 -9 15 -4 27 -1 32 7 7 10 11 10 21 0 6 -6 18
-12 26 -12 26 0 159 -90 170 -115 6 -14 16 -25 22 -25 6 0 8 -4 5 -10 -3 -5
-1 -10 6 -10 6 0 9 -8 6 -20 -3 -13 1 -21 14 -25 11 -4 17 -11 14 -16 -4 -5
-2 -9 4 -9 5 0 13 5 17 12 5 8 10 6 16 -8 5 -13 6 -10 3 12 -4 21 -1 35 10 44
13 10 15 9 15 -6 1 -18 1 -18 11 -1 10 17 12 17 45 -2 19 -12 44 -21 56 -21
17 0 20 5 16 31 -3 18 1 45 9 60 15 30 27 33 100 29 27 -1 31 1 26 19 -5 19
-1 21 46 21 32 0 50 4 46 10 -9 14 18 13 32 -1 9 -9 21 -8 46 5 19 9 42 16 51
16 9 0 19 7 23 16 3 8 12 13 19 10 8 -3 14 -2 14 3 0 5 16 12 35 15 22 5 35
13 35 23 0 12 3 13 15 3 8 -6 20 -10 27 -7 8 4 7 6 -4 6 -10 1 -18 5 -18 10 0
16 21 24 33 12 6 -6 29 -10 51 -10 23 1 33 3 24 6 -21 5 -24 23 -5 23 8 0 7 3
-3 10 -19 12 -7 23 25 25 15 0 25 -5 25 -13 0 -11 3 -10 15 2 20 20 9 52 -12
34 -11 -9 -16 -9 -23 1 -4 8 -13 10 -19 7 -6 -4 -32 3 -58 15 -25 12 -59 23
-75 25 -37 2 -119 44 -112 55 5 8 0 10 -21 9 -3 0 -15 9 -27 20 -12 11 -25 20
-30 20 -4 0 -8 9 -8 20 0 11 -6 20 -13 20 -7 0 -18 13 -24 30 -8 21 -18 30
-35 31 -22 0 -22 1 -3 9 20 9 20 9 -2 15 -13 4 -24 18 -28 36 -5 20 -14 31
-31 35 -13 3 -24 12 -24 20 0 8 -4 14 -9 14 -5 0 -12 11 -15 25 -4 14 -11 25
-17 25 -6 0 -8 9 -4 19 3 11 1 22 -5 26 -5 3 -10 -1 -10 -10 0 -9 -4 -13 -10
-10 -5 3 -10 14 -10 24 0 24 -36 55 -55 47 -9 -3 -24 4 -37 19 -12 14 -28 25
-35 25 -7 0 -13 5 -13 10 0 6 -16 20 -35 31 -25 15 -35 28 -35 45 0 13 -4 24
-8 24 -17 0 -21 -12 -12 -36 5 -13 5 -26 1 -29 -10 -5 -20 15 -27 54 -3 14
-12 30 -20 36 -8 6 -17 19 -19 30 -2 11 -4 20 -5 20 -2 0 -8 32 -16 90 -4 28
-13 54 -20 58 -8 4 -14 17 -14 27 0 10 -4 21 -9 25 -5 3 -15 31 -21 62 -12 53
-11 58 9 74 21 17 30 35 11 24 -5 -3 -10 1 -10 9 0 9 5 16 10 16 13 0 13 43
-1 57 -7 7 -8 22 -1 46 8 28 7 37 -4 41 -8 3 -14 10 -14 16 0 6 3 9 8 7 4 -3
5 32 4 77 -4 79 -3 82 21 95 14 7 28 23 31 34 4 18 10 19 68 13 215 -22 311
-27 417 -17 63 5 120 7 127 4 17 -6 3 -32 -51 -93 -113 -127 -166 -200 -146
-200 14 0 27 -44 24 -77 -2 -29 0 -33 22 -33 14 0 25 -4 25 -9 0 -11 -25 -21
-51 -21 -11 0 -24 -11 -31 -25 -6 -14 -15 -25 -20 -25 -5 0 -3 -6 4 -14 17
-18 50 2 43 25 -7 20 35 34 47 16 6 -9 8 -9 8 1 0 6 11 12 25 12 14 0 25 4 25
9 0 10 34 8 61 -3 8 -4 27 -2 41 3 14 5 29 6 34 1 11 -10 148 23 185 44 14 9
45 18 67 22 23 4 42 10 42 14 0 3 -11 17 -25 30 -14 13 -25 28 -25 34 0 6 -12
20 -26 31 -28 21 -59 85 -46 94 15 10 23 93 13 128 -5 18 -6 35 -2 38 5 2 7
28 5 57 -11 183 -4 215 52 242 36 17 81 23 56 8 -9 -6 -6 -12 12 -20 29 -13
66 -87 66 -131 0 -35 9 -63 19 -57 4 3 7 -8 6 -22 0 -17 5 -26 13 -24 8 1 11
-2 7 -8 -3 -5 6 -15 20 -20 34 -13 37 -13 30 3 -4 6 -1 5 7 -3 7 -8 31 -16 53
-17 22 0 89 -4 148 -8 71 -5 149 -3 229 5 151 17 160 23 202 146 27 78 36 92
70 114 l39 25 -47 3 c-50 3 -65 22 -17 22 17 0 33 5 37 12 4 6 3 8 -4 4 -11
-7 -47 34 -58 66 -5 16 -8 18 -15 7 -5 -9 -9 -10 -9 -2 0 6 -14 14 -30 18 -17
4 -28 10 -25 15 3 4 -5 6 -17 2 -16 -4 -19 -2 -13 8 6 10 1 12 -25 7 -18 -4
-71 -8 -119 -9 -81 -1 -79 -2 34 -7 176 -9 194 -27 182 -196 -7 -101 -24 -169
-47 -190 -26 -24 -129 -37 -295 -38 -152 -1 -234 11 -286 41 -38 21 -65 115
-84 292 -3 27 -18 28 -42 5 -19 -20 -28 -19 -93 6 -32 12 -66 18 -82 15 -15
-3 -46 1 -69 9 -23 8 -52 15 -66 15 -16 0 -22 4 -17 12 5 8 0 9 -17 5 -13 -4
-28 -7 -33 -7 -5 0 -3 -7 4 -15 10 -12 10 -15 -3 -15 -9 0 -20 -15 -27 -35
-14 -42 -34 -45 -75 -9 -50 44 -85 56 -169 61 -105 6 -112 8 -95 30 13 15 11
16 -16 9 -16 -4 -43 -14 -59 -22 -35 -17 -50 -18 -40 -3 3 6 -6 3 -22 -7 -15
-11 -25 -14 -21 -8 4 7 -3 14 -19 18 -37 10 -77 -34 -68 -72 4 -15 8 -29 10
-31 2 -2 -3 -10 -11 -18 -16 -16 -21 -38 -6 -29 5 3 8 -2 7 -11 0 -10 9 -19
24 -23 l25 -7 -27 -13 c-22 -10 -28 -20 -28 -44 l0 -31 21 36 c13 23 34 40 56
48 35 13 42 10 55 -20 2 -4 28 -9 58 -13 l55 -6 -46 22 c-84 42 -105 73 -44
66 19 -2 36 1 39 7 2 6 11 5 26 -3 18 -11 24 -11 33 2 7 9 27 15 47 15 77 -1
99 13 100 59 0 12 2 22 5 22 13 0 70 -34 93 -56 18 -16 35 -22 58 -20 36 3 44
-7 44 -55 0 -16 4 -29 8 -29 17 0 50 -40 47 -57 -16 -81 -16 -83 12 -83 19 0
24 -3 17 -10 -46 -46 -503 -52 -641 -9 -42 13 -63 74 -63 181 l0 78 -71 0
c-44 0 -68 4 -64 10 3 6 34 10 68 10 l62 0 18 41 c28 64 79 82 242 83 162 1
224 -3 300 -20 72 -17 98 -17 90 -4 -7 11 23 7 79 -11 49 -15 65 -12 59 14 -6
23 -110 127 -128 127 -12 0 -39 29 -48 53 -3 9 -16 17 -27 17 -11 0 -20 5 -20
10 0 6 -9 10 -21 10 -11 0 -18 4 -15 9 3 5 -1 12 -10 15 -8 3 -12 2 -9 -4 11
-17 -8 -11 -31 11 -19 18 -23 18 -36 5 -11 -11 -18 -12 -26 -4 -8 8 -13 7 -18
-5 -3 -9 -12 -17 -20 -17 -7 0 -11 -6 -8 -13 3 -10 -5 -12 -31 -9 -41 5 -43 9
-12 22 18 8 16 9 -13 5 -19 -3 -67 -7 -106 -9 -39 -2 -81 -9 -92 -15 -29 -16
-115 -3 -108 16 4 10 1 13 -13 8 -18 -6 -19 -4 -6 43 12 46 11 53 -11 97 -12
27 -23 51 -22 54 2 21 -6 35 -39 67 -34 32 -36 37 -21 48 12 9 14 16 6 30 -8
14 -12 15 -18 6 -12 -20 -27 -4 -33 38 -7 42 -48 88 -71 79 -8 -3 -20 1 -26 9
-10 11 -10 14 -1 14 19 0 2 20 -25 30 -14 6 -24 18 -24 29 0 11 -3 27 -7 37
-5 13 -3 16 10 11 19 -7 23 3 7 19 -5 5 -6 21 -2 34 5 18 14 25 32 25 22 0 25
4 22 30 -3 24 -1 28 9 18 15 -15 29 -16 49 -3 13 8 12 11 -5 25 -19 16 -18 16
22 12 34 -4 45 -1 63 18 12 13 19 28 16 34 -4 5 2 16 12 23 11 7 22 23 26 35
4 14 18 25 34 29 61 13 62 14 62 50 0 27 4 34 19 34 11 0 22 4 26 9 3 6 27 13
53 16 26 4 56 10 67 15 11 5 54 8 95 6 57 -3 79 0 93 12 15 13 19 13 35 1 16
-14 37 -15 147 -6 17 1 47 -1 69 -6 26 -5 43 -4 53 5 11 9 16 9 23 -1 4 -8 13
-10 19 -7 6 4 9 11 7 15 -3 4 5 8 17 8 17 2 19 0 7 -7 -13 -8 -13 -10 2 -10 9
0 20 5 23 10 3 6 11 10 16 10 6 0 7 -4 4 -10 -11 -18 22 -10 40 10 25 27 33
25 29 -7 -2 -16 -1 -21 2 -13 4 8 15 26 25 39 14 17 19 19 19 8 0 -8 -6 -18
-12 -20 -8 -3 -6 -6 5 -6 9 -1 17 -6 17 -12 0 -6 15 -10 33 -8 53 3 79 0 72
-11 -3 -5 -1 -10 5 -10 18 0 89 -53 159 -119 46 -43 67 -57 73 -48 4 7 2 13
-7 15 -8 2 -17 13 -21 25 -3 12 -14 31 -23 41 -9 11 -10 16 -3 12 26 -15 10
18 -23 48 -19 18 -35 39 -35 48 0 9 -12 19 -26 22 -17 5 -24 12 -20 21 3 8 1
17 -5 21 -6 4 -6 11 2 20 16 20 30 18 23 -3 -5 -14 -4 -15 4 -4 7 9 12 10 16
2 4 -6 12 -11 18 -11 6 0 4 8 -5 18 -10 10 -14 21 -11 25 3 3 -4 3 -16 0 -17
-4 -21 -2 -18 8 3 8 12 13 20 11 9 -1 21 5 28 13 10 12 10 15 -4 15 -9 0 -16
-3 -16 -7 0 -5 -21 -9 -48 -10 l-47 -2 30 14 30 14 -33 1 c-22 0 -31 4 -26 11
4 6 19 9 38 5 24 -5 27 -3 16 5 -12 8 -9 9 12 5 14 -3 37 -2 50 3 20 9 19 10
-14 10 -21 1 -38 6 -38 12 0 6 -9 8 -20 4 -24 -7 -43 2 -34 17 4 7 9 6 14 -1
4 -8 14 -9 31 -2 l24 10 -23 0 c-13 1 -20 5 -17 11 4 6 -1 7 -12 4 -12 -4 -9
3 10 20 34 31 26 34 -14 5 -22 -15 -29 -17 -29 -6 0 10 -8 13 -24 10 -32 -7
-40 10 -15 33 15 14 35 18 82 18 40 -1 55 2 42 7 -29 11 -80 11 -112 -2 -42
-16 -62 -19 -68 -8 -4 5 -19 9 -36 9 -34 0 -40 24 -8 40 12 7 18 18 15 26 -3
7 5 24 17 35 20 20 21 21 2 15 -11 -4 -29 -9 -39 -12 -11 -2 -24 -10 -28 -19
-5 -8 -20 -15 -33 -15 -14 0 -25 -6 -25 -12 0 -10 -3 -9 -9 1 -5 7 -13 11 -19
7 -6 -3 -13 -2 -17 4 -3 5 -19 10 -36 10 -22 0 -29 5 -29 20 0 11 -4 20 -10
20 -12 0 -12 -2 0 -34 5 -14 7 -26 4 -26 -3 0 -10 13 -15 30 -9 25 -14 28 -29
20 -25 -13 -53 -13 -45 0 4 6 -1 22 -10 36 -9 13 -13 29 -10 34 3 6 4 10 1 10
-3 0 -8 -4 -11 -10z m335 -115 c0 -12 -19 -12 -23 0 -4 9 -1 12 9 8 7 -3 14
-7 14 -8z m-85 -83 c2 -15 0 -19 -11 -15 -15 5 -19 25 -7 36 8 9 13 4 18 -21z
m135 -52 c0 -5 -4 -10 -10 -10 -5 0 -10 5 -10 10 0 6 5 10 10 10 6 0 10 -4 10
-10z m31 -27 c-5 -10 -9 -21 -10 -26 0 -4 -17 -22 -38 -40 l-37 -32 44 58 c46
59 58 70 41 40z m40 -52 c-7 -5 -11 -13 -7 -19 3 -6 2 -13 -3 -16 -5 -4 -13
-2 -16 4 -8 13 12 40 29 40 6 0 5 -4 -3 -9z m-384 -53 c-3 -7 -5 -2 -5 12 0
14 2 19 5 13 2 -7 2 -19 0 -25z m-787 -372 c0 -3 -4 -8 -10 -11 -5 -3 -10 -1
-10 4 0 6 5 11 10 11 6 0 10 -2 10 -4z m-73 -402 c-3 -3 -12 -4 -19 -1 -8 3
-5 6 6 6 11 1 17 -2 13 -5z m641 -503 c40 -11 85 -27 100 -36 29 -19 72 -63
72 -75 0 -4 -24 -1 -52 7 -56 16 -76 17 -313 21 -139 3 -148 4 -122 18 15 8
27 21 27 29 0 8 7 15 15 15 8 0 15 5 15 10 0 33 148 39 258 11z m302 -186 c17
-9 30 -21 30 -28 0 -8 -3 -9 -8 -1 -4 6 -20 18 -37 27 -16 9 -26 16 -22 17 4
0 21 -7 37 -15z m-383 -27 c-3 -8 -6 -5 -6 6 -1 11 2 17 5 13 3 -3 4 -12 1
-19z m430 -76 c-6 -69 -50 -186 -73 -196 -7 -2 1 21 17 52 30 62 48 128 49
180 0 17 3 32 6 32 4 0 4 -31 1 -68z m240 26 c-3 -8 -6 -5 -6 6 -1 11 2 17 5
13 3 -3 4 -12 1 -19z m-1107 -85 c0 -13 -3 -13 -15 -3 -8 7 -12 16 -9 21 8 13
24 1 24 -18z m-711 -157 c25 5 32 4 27 -4 -8 -14 -92 -16 -100 -3 -4 5 -3 17
1 26 5 16 8 15 22 -4 13 -17 23 -20 50 -15z m-69 -77 c0 -5 -4 -9 -10 -9 -5 0
-10 7 -10 16 0 8 5 12 10 9 6 -3 10 -10 10 -16z m268 -37 c-17 -7 -7 -22 15
-22 18 0 19 -2 7 -10 -10 -6 -11 -10 -2 -10 6 0 12 -5 12 -11 0 -7 -13 -10
-34 -7 -32 3 -33 2 -29 -24 2 -15 11 -40 19 -56 16 -31 18 -61 5 -81 -6 -9
-11 4 -16 40 -4 29 -14 63 -22 75 -10 16 -11 32 -4 63 5 22 6 41 3 41 -3 0 5
12 19 26 l24 26 6 -24 c3 -13 2 -24 -3 -26z m1265 -70 c27 -46 16 -92 -23 -92
-26 0 -28 4 -32 43 -3 23 -8 49 -12 59 -5 11 -2 18 11 21 28 7 36 3 56 -31z
m-1231 -54 c-16 -16 -37 4 -28 28 6 16 8 16 23 1 13 -13 15 -19 5 -29z m1135
20 c-3 -8 -6 -5 -6 6 -1 11 2 17 5 13 3 -3 4 -12 1 -19z m-1254 -128 c9 -11
26 -20 37 -20 29 0 25 -28 -5 -36 -14 -3 -25 -11 -25 -17 0 -16 -67 52 -73 74
-7 27 43 26 66 -1z m97 -123 c0 -13 -38 -42 -56 -42 -6 0 -19 -8 -28 -18 -23
-22 -33 -22 -47 4 -6 12 -7 19 -1 15 5 -3 15 1 22 9 7 8 20 15 29 15 9 1 27 7
41 15 31 18 40 18 40 2z m1415 -1175 c-3 -3 -11 0 -18 7 -9 10 -8 11 6 5 10
-3 15 -9 12 -12z m-745 -272 c0 -5 -7 -10 -15 -10 -8 0 -15 5 -15 10 0 6 7 10
15 10 8 0 15 -4 15 -10z m273 -691 c9 -12 17 -32 17 -45 0 -18 -4 -22 -17 -17
-10 3 -14 2 -10 -2 4 -5 -7 -17 -25 -28 l-33 -18 30 5 c28 4 28 3 10 -10 -26
-19 -42 -18 -81 7 -28 17 -34 27 -34 54 0 31 23 65 32 48 3 -4 3 -2 1 6 -10
37 79 37 110 0z"/>
<path d="M2931 4901 c-7 -5 -12 -14 -10 -20 2 -6 10 -2 17 9 14 22 13 23 -7
11z"/>
<path d="M2970 4902 c0 -6 -3 -19 -7 -29 -6 -15 -4 -16 9 -6 8 7 17 10 21 7 3
-3 4 2 3 12 -3 19 -26 33 -26 16z"/>
<path d="M3535 4572 c-16 -12 -16 -32 0 -26 8 4 15 12 15 20 0 16 -1 16 -15 6z"/>
<path d="M2268 4228 c9 -9 15 -9 24 0 9 9 7 12 -12 12 -19 0 -21 -3 -12 -12z"/>
<path d="M2152 4091 c-10 -6 -10 -10 3 -21 13 -11 15 -9 15 9 0 24 0 24 -18
12z"/>
<path d="M2116 4043 c-11 -11 -6 -23 9 -23 8 0 15 4 15 9 0 13 -16 22 -24 14z"/>
<path d="M3621 3319 c-25 -5 -49 -14 -55 -20 -8 -9 -7 -10 3 -4 11 6 13 4 8
-8 -4 -12 0 -14 19 -11 22 4 34 -9 17 -19 -5 -2 -3 -2 4 -1 6 2 14 -2 17 -9 2
-7 5 -5 5 5 1 9 6 20 12 24 8 4 9 0 4 -15 -7 -23 -3 -24 33 -14 18 4 20 8 10
14 -9 6 -5 9 14 9 21 0 26 5 25 20 -1 18 -12 24 -44 23 -7 -1 -10 3 -7 8 6 10
-4 10 -65 -2z"/>
<path d="M3754 3282 c2 -8 10 -16 19 -18 26 -4 28 10 2 22 -19 9 -22 8 -21 -4z"/>
<path d="M3870 3258 c0 -7 5 -20 10 -28 8 -12 10 -11 10 7 0 12 -4 25 -10 28
-5 3 -10 0 -10 -7z"/>
<path d="M3863 3153 c9 -2 25 -2 35 0 9 3 1 5 -18 5 -19 0 -27 -2 -17 -5z"/>
<path d="M3708 3143 c7 -3 16 -2 19 1 4 3 -2 6 -13 5 -11 0 -14 -3 -6 -6z"/>
<path d="M3490 3047 c-19 -17 -27 -28 -17 -24 13 5 17 1 17 -18 0 -14 1 -25 3
-25 1 0 26 -3 54 -6 29 -4 64 -3 78 0 21 5 25 12 25 46 0 43 8 38 -100 55 -17
2 -36 -6 -60 -28z m138 -25 c2 -7 -3 -12 -12 -12 -9 0 -16 7 -16 16 0 17 22
14 28 -4z"/>
<path d="M3690 3052 c0 -4 9 -15 20 -25 11 -9 20 -26 20 -38 0 -15 5 -19 16
-15 8 3 12 2 9 -4 -3 -6 5 -10 19 -10 35 0 33 12 -9 52 -35 33 -75 54 -75 40z"/>
<path d="M3354 3041 c4 -5 1 -11 -6 -13 -7 -3 -8 -7 -2 -11 5 -3 15 3 22 14
10 16 9 19 -4 19 -8 0 -13 -4 -10 -9z"/>
<path d="M3840 3016 c0 -22 6 -23 106 -31 84 -7 91 -6 91 11 0 29 -15 34 -109
34 -70 0 -88 -3 -88 -14z"/>
<path d="M2565 2960 c3 -5 8 -10 11 -10 2 0 4 5 4 10 0 6 -5 10 -11 10 -5 0
-7 -4 -4 -10z"/>
<path d="M2312 2345 c0 -16 2 -22 5 -12 2 9 2 23 0 30 -3 6 -5 -1 -5 -18z"/>
<path d="M2690 2279 c0 -5 5 -7 10 -4 6 3 10 8 10 11 0 2 -4 4 -10 4 -5 0 -10
-5 -10 -11z"/>
<path d="M2736 2203 c-3 -4 -6 -15 -6 -25 0 -20 25 -25 33 -5 5 14 -17 39 -27
30z"/>
<path d="M2650 2178 c0 -9 5 -20 11 -23 17 -11 18 -2 3 19 -12 17 -14 17 -14
4z"/>
<path d="M2786 2109 c-62 -15 -156 -60 -156 -75 0 -19 70 -53 165 -81 85 -25
195 -35 195 -18 0 6 4 4 9 -4 8 -12 12 -11 27 4 13 13 14 17 4 13 -8 -2 -22 5
-32 16 -14 17 -19 18 -27 7 -7 -11 -15 -11 -47 5 -32 16 -38 23 -36 44 5 31 2
29 39 36 21 4 35 1 46 -11 10 -9 17 -12 17 -7 0 6 12 15 28 20 22 9 23 11 7
12 -11 1 -23 2 -27 1 -5 0 -8 4 -8 9 0 6 -5 10 -11 10 -5 0 -7 -5 -3 -11 4 -7
-6 -2 -22 9 -34 25 -113 35 -168 21z"/>
<path d="M3354 2024 c-4 -22 -2 -40 5 -47 8 -8 11 -8 11 1 0 8 19 12 55 12 46
0 55 3 55 18 0 20 -61 52 -98 52 -16 0 -23 -8 -28 -36z"/>
<path d="M3115 1950 c-3 -5 1 -10 9 -10 9 0 16 5 16 10 0 6 -4 10 -9 10 -6 0
-13 -4 -16 -10z"/>
<path d="M3234 1935 c-10 -8 -14 -15 -8 -15 5 0 19 7 30 15 10 8 14 15 8 15
-5 0 -19 -7 -30 -15z"/>
<path d="M2363 617 c4 -11 2 -17 -6 -15 -7 2 -12 -1 -12 -7 0 -10 5 -12 38
-14 9 0 17 -8 17 -16 0 -8 6 -15 13 -15 25 0 49 -37 42 -61 -6 -18 -4 -21 9
-16 9 4 16 3 16 -1 0 -18 60 -42 86 -36 22 6 24 8 10 16 -9 5 -13 14 -10 20 4
6 3 8 -3 5 -5 -3 -20 7 -31 23 -12 16 -42 38 -67 49 -25 11 -59 35 -76 53 -19
19 -29 25 -26 15z"/>
<path d="M2350 517 c0 -8 11 -19 25 -25 29 -14 33 -2 7 21 -22 20 -32 21 -32
4z"/>
<path d="M2600 430 c0 -16 17 -20 34 -7 15 11 15 13 -8 15 -14 1 -26 -2 -26
-8z"/>
<path d="M2670 366 c14 -12 27 -18 29 -13 4 11 -26 37 -43 37 -6 0 1 -11 14
-24z"/>
</g>
</svg>
